<?xml version="1.0" encoding="UTF-8"?>
<svg version="1.1" xmlns="http://www.w3.org/2000/svg" width="2560" height="800">
<path d="M0 0 C9.3899955 8.02172311 16.11903864 17.75324453 21.90234375 28.609375 C23.23498202 31.17448123 23.23498202 31.17448123 26.375 31.875 C26.375 16.035 26.375 0.195 26.375 -16.125 C49.145 -16.125 71.915 -16.125 95.375 -16.125 C95.44121989 23.31556846 95.4965802 62.7560842 95.52819599 102.1966924 C95.53194781 106.86013227 95.5358308 111.52357202 95.53979492 116.18701172 C95.54058185 117.11536194 95.54136878 118.04371216 95.54217956 119.00019421 C95.55520955 134.00332688 95.57885004 149.00642484 95.60645839 164.00953697 C95.63457974 179.42073084 95.65119045 194.83190661 95.65726548 210.24312508 C95.66136801 219.74155324 95.67429368 229.23988323 95.6987494 238.73828115 C95.71468981 245.26451486 95.71938171 251.79069833 95.71550413 258.31695007 C95.71359541 262.07409155 95.71638059 265.83106231 95.73261642 269.58817291 C95.86727282 302.44405433 92.15900508 331.71681624 68.27734375 356.0078125 C67.31213206 356.96580003 66.34484708 357.92170552 65.375 358.875 C64.23224609 360.01582031 64.23224609 360.01582031 63.06640625 361.1796875 C34.68434025 387.94736076 -10.79641141 394.92867679 -48.14941406 393.96826172 C-87.77366807 392.47551369 -125.43412848 382.88301442 -153.578125 353.33203125 C-162.12269563 343.93673714 -169.70142669 331.26050004 -172.625 318.875 C-165.81840395 316.49762497 -158.99350815 314.63534331 -151.984375 312.95703125 C-150.89916565 312.69492355 -149.8139563 312.43281586 -148.69586182 312.1627655 C-146.41718977 311.61374707 -144.13802607 311.06676558 -141.85839844 310.52172852 C-138.36999197 309.68630064 -134.88418758 308.84057487 -131.3984375 307.99414062 C-129.17723329 307.46031315 -126.95588401 306.92708889 -124.734375 306.39453125 C-123.69472595 306.14145706 -122.6550769 305.88838287 -121.58392334 305.62763977 C-120.61231262 305.39707382 -119.6407019 305.16650787 -118.63964844 304.92895508 C-117.78965271 304.72482498 -116.93965698 304.52069489 -116.06390381 304.31037903 C-113.48811653 303.85056435 -111.23372373 303.63958474 -108.625 303.875 C-106.73828125 306.1484375 -106.73828125 306.1484375 -104.9375 309.25 C-94.72726597 325.49442488 -80.56292465 333.76171145 -62.06640625 337.9921875 C-37.73990034 342.60480543 -12.64491375 338.97055855 7.94140625 325.15234375 C19.80915102 315.62662072 23.7273142 300.32526576 25.375 285.875 C25.66769719 281.00345233 25.74458345 276.14120963 25.7890625 271.26171875 C25.80783416 269.91265255 25.82741168 268.56359735 25.8477478 267.21455383 C25.8984433 263.71146215 25.93839789 260.20833265 25.97589111 256.70507812 C26.01633001 253.11123796 26.06723741 249.51754645 26.1171875 245.92382812 C26.21320252 238.90766168 26.29783808 231.89140126 26.375 224.875 C25.385 224.875 24.395 224.875 23.375 224.875 C23.10816406 225.60332031 22.84132813 226.33164062 22.56640625 227.08203125 C15.151873 244.46364199 -2.34143365 259.48383189 -19.54345703 266.67724609 C-48.9402982 277.96426408 -83.38792541 275.8683326 -112.125 263.5 C-139.91942315 250.93330011 -160.85166436 227.18396265 -171.59765625 198.83203125 C-187.88943084 153.41356672 -188.39273388 95.51338651 -168.37646484 51.10498047 C-163.19611149 40.24160308 -157.43445134 30.07248668 -149.625 20.875 C-148.89667969 20.00875 -148.16835937 19.1425 -147.41796875 18.25 C-111.78638463 -22.68576039 -43.84153069 -36.03791807 0 0 Z M-89.625 57.875 C-98.82862826 68.97976382 -103.99277316 82.07386122 -107.625 95.875 C-107.94726562 97.07640625 -108.26953125 98.2778125 -108.6015625 99.515625 C-115.00587138 128.60435507 -112.1652756 164.13973722 -96.625 189.875 C-88.69362135 201.28314737 -78.78173692 210.14302833 -65.625 214.875 C-64.78324219 215.19339844 -63.94148438 215.51179687 -63.07421875 215.83984375 C-46.07762219 221.17741459 -25.59038617 219.06547098 -9.8125 211.1875 C6.91343007 201.29608816 17.4010261 184.89016467 22.53125 166.42578125 C30.40275946 133.2998456 28.98101276 95.76854249 11.375 65.875 C1.78390125 51.66818498 -11.2824972 41.6910971 -28.20825195 38.23461914 C-51.33599581 34.79314357 -73.46830764 40.37630225 -89.625 57.875 Z " fill="#C03FF8" transform="translate(1562.625,299.125)"/>
<path d="M0 0 C29.37 0 58.74 0 89 0 C92.279375 9.405 95.55875 18.81 98.9375 28.5 C106.12502594 49.09599598 113.34218148 69.68055461 120.6413269 90.23730469 C126.46666471 106.6445716 132.24242257 123.06883778 138 139.5 C144.13627325 157.01087131 150.29522491 174.51328175 156.5 192 C162.70477537 209.48671904 168.86354626 226.98919146 175 244.5 C181.49623569 263.03692759 188.02007102 281.56363507 194.58703613 300.07562256 C201.31511372 319.04273381 207.99862048 338.02538712 214.67016602 357.01245117 C215.05290176 358.10126083 215.43563751 359.1900705 215.82997131 360.31187439 C216.56698651 362.40905394 217.30344523 364.50642915 218.03929138 366.60401917 C219.55753786 370.92682252 221.08213009 375.24628206 222.65429688 379.54980469 C222.89412292 380.20850555 223.13394897 380.86720642 223.38104248 381.54586792 C223.98765015 383.20518373 224.60042694 384.86224096 225.21386719 386.51904297 C226 389 226 389 226 392 C200.92 392 175.84 392 150 392 C147.66773905 386.16934762 145.41809822 380.50705345 143.42211914 374.58520508 C143.1954808 373.91533569 142.96884247 373.24546631 142.7353363 372.55529785 C141.99928347 370.37759617 141.26717272 368.19859266 140.53515625 366.01953125 C140.0150019 364.47784072 139.49460633 362.93623157 138.97398376 361.3946991 C137.61059551 357.35556298 136.25059683 353.31529358 134.89129639 349.27478027 C133.52150101 345.20524016 132.14823275 341.13687245 130.77539062 337.06835938 C128.75100799 331.06672686 126.72756586 325.06477897 124.70727539 319.06176758 C124.10249107 317.26501335 124.10249107 317.26501335 123.48548889 315.43196106 C121.31537273 308.95741226 119.15937922 302.47813767 117 296 C68.82 295.67 20.64 295.34 -29 295 C-29.66 297.97 -30.32 300.94 -31 304 C-31.91993601 307.01773253 -32.86749643 310.00410153 -33.87329102 312.9921875 C-34.15483032 313.84045609 -34.43636963 314.68872467 -34.72644043 315.56269836 C-35.64784893 318.33495779 -36.57569102 321.10501294 -37.50390625 323.875 C-38.14914611 325.81020047 -38.79407436 327.74550486 -39.43870544 329.6809082 C-40.78499984 333.71970202 -42.13437132 337.75745004 -43.48608398 341.79443359 C-45.22195081 346.97923406 -46.95109101 352.16624769 -48.67810154 357.35400391 C-50.00632989 361.34202077 -51.33753733 365.32903791 -52.6697216 369.31573486 C-53.30886965 371.22932166 -53.94720292 373.1431808 -54.5847187 375.05731201 C-55.47222428 377.72019754 -56.36359793 380.38175559 -57.25610352 383.04296875 C-57.52053757 383.83874832 -57.78497162 384.63452789 -58.05741882 385.454422 C-59.88562396 390.88562396 -59.88562396 390.88562396 -61 392 C-63.37300869 392.09494733 -65.71678703 392.12559319 -68.09008789 392.11352539 C-68.83150528 392.11367142 -69.57292267 392.11381744 -70.33680725 392.1139679 C-72.79878621 392.11326865 -75.26069043 392.10547574 -77.72265625 392.09765625 C-79.42516539 392.09579211 -81.12767507 392.09436819 -82.83018494 392.09336853 C-87.31993073 392.08954302 -91.80964438 392.07971247 -96.29937744 392.06866455 C-100.87731491 392.05845113 -105.45525756 392.05387106 -110.03320312 392.04882812 C-119.02214957 392.03809022 -128.01107212 392.02101341 -137 392 C-136.4547656 388.39724702 -135.79584284 385.02287791 -134.59570312 381.58251953 C-134.30959167 380.75489609 -134.02348022 379.92727264 -133.72869873 379.0745697 C-133.41604065 378.18628983 -133.10338257 377.29800995 -132.78125 376.3828125 C-132.45199524 375.43543716 -132.12274048 374.48806183 -131.7835083 373.51197815 C-130.69385855 370.38126971 -129.59705552 367.25312027 -128.5 364.125 C-127.72659442 361.90871246 -126.95348737 359.69232073 -126.18066406 357.47583008 C-120.39399293 340.89940045 -114.53661662 324.34799697 -108.66015625 307.80322266 C-103.11863755 292.19559587 -97.63843553 276.56683612 -92.1750145 260.93173981 C-85.63365995 242.21185297 -79.07024063 223.5002556 -72.4375 204.8125 C-66.29766245 187.51243544 -60.19822367 170.19856424 -54.125 152.875 C-53.70581299 151.67931396 -53.28662598 150.48362793 -52.85473633 149.25170898 C-52.43538818 148.05553955 -52.01604004 146.85937012 -51.58398438 145.62695312 C-50.73698573 143.2109352 -49.88998052 140.79491957 -49.04296875 138.37890625 C-48.62352997 137.1824649 -48.20409119 135.98602356 -47.77194214 134.75332642 C-42.5610956 119.89218746 -37.33335633 105.03699465 -32.10327148 90.18261719 C-31.32404623 87.96940448 -30.54483075 85.75618833 -29.765625 83.54296875 C-29.37955582 82.44642975 -28.99348663 81.34989075 -28.59571838 80.22012329 C-26.09644196 73.11981581 -23.60143422 66.01802062 -21.1091156 58.91526794 C-19.38446543 54.00053939 -17.6585892 49.08624175 -15.93264771 44.17196655 C-15.11602232 41.84570204 -14.29998225 39.51923195 -13.48458862 37.1925354 C-12.34934774 33.95333176 -11.21198416 30.71488012 -10.07421875 27.4765625 C-9.74995911 26.54955032 -9.42569946 25.62253815 -9.09161377 24.66743469 C-6.18095754 16.39431148 -3.08185108 8.21826955 0 0 Z M43 81 C20.94605831 146.39254374 20.94605831 146.39254374 -0.99957275 211.82147217 C-1.74768733 214.05899974 -2.496827 216.29618484 -3.24700928 218.53302002 C-4.25357036 221.53535762 -5.25636032 224.53892391 -6.2578125 227.54296875 C-6.54360168 228.39319107 -6.82939087 229.24341339 -7.12384033 230.11940002 C-8.50168682 233.97585009 -8.50168682 233.97585009 -9 238 C26.31 238 61.62 238 98 238 C88.39265911 208.3310256 88.39265911 208.3310256 78.6171875 178.71875 C77.98560135 176.8233115 77.35410388 174.92784345 76.72268677 173.03234863 C75.42497749 169.13777925 74.12623571 165.24355638 72.82666016 161.34960938 C71.52059808 157.43600352 70.21592394 153.52193966 68.91259766 149.60742188 C65.46892533 139.26469697 62.01780563 128.9245675 58.54586411 118.59129333 C56.91279383 113.7293002 55.29004601 108.8640858 53.67838097 103.99495697 C52.75803507 101.22176225 51.82814612 98.45184673 50.89517593 95.68287659 C50.27599171 93.83548917 49.66868019 91.98413566 49.06173706 90.13269043 C48.69734528 89.05829712 48.33295349 87.98390381 47.95751953 86.87695312 C47.64896027 85.95047974 47.340401 85.02400635 47.02249146 84.06945801 C46.68506927 83.38653687 46.34764709 82.70361572 46 82 C45.01 81.67 44.02 81.34 43 81 Z " fill="#EB44F6" transform="translate(880,185)"/>
<path d="M0 0 C1.56200413 1.49993774 3.1042385 3.02076248 4.625 4.5625 C5.39328125 5.32046875 6.1615625 6.0784375 6.953125 6.859375 C13.23489897 13.39754791 17.5250302 20.54934718 21.625 28.5625 C22.03621094 29.35914063 22.44742188 30.15578125 22.87109375 30.9765625 C29.82890737 46.29999639 30.20642717 63.79707044 30.07910156 80.29394531 C30.07796979 82.38553851 30.07861336 84.4771333 30.08087158 86.56872559 C30.08200678 92.17907629 30.05869345 97.78907627 30.03057575 103.39934635 C30.00536042 109.28759486 30.00320438 115.17585377 29.99847412 121.06414795 C29.98610298 132.18417213 29.95336164 143.30403668 29.91307616 154.42399096 C29.86817476 167.09650061 29.84632546 179.76901838 29.82629442 192.44158792 C29.78462305 218.48200049 29.71134494 244.5221946 29.625 270.5625 C7.515 270.5625 -14.595 270.5625 -37.375 270.5625 C-37.705 257.3625 -38.035 244.1625 -38.375 230.5625 C-41.015 234.5225 -43.655 238.4825 -46.375 242.5625 C-61.45660759 261.78669509 -83.18912193 272.44580885 -107.17431641 275.54467773 C-135.74591154 278.83494016 -167.71623468 275.25231076 -191.375 257.5625 C-194.87383415 254.71643342 -198.15963961 251.72418159 -201.375 248.5625 C-202.42494141 247.53189453 -202.42494141 247.53189453 -203.49609375 246.48046875 C-218.99659187 230.19437034 -223.74276095 209.62228412 -223.6875 187.75 C-223.70361328 186.48607422 -223.71972656 185.22214844 -223.73632812 183.91992188 C-223.74708204 162.91751774 -216.94957871 144.73758084 -202.6875 129.3125 C-184.16755324 111.99325706 -158.13493197 104.7881475 -133.796875 100.58203125 C-132.32662621 100.3274691 -132.32662621 100.3274691 -130.82667542 100.06776428 C-119.04403041 98.09030983 -107.18529037 96.79991496 -95.3125 95.5 C-66.33316381 94.14722279 -66.33316381 94.14722279 -42.375 80.5625 C-39.01958449 70.49625348 -41.18405 57.99538126 -45.375 48.5625 C-47.08993262 45.56260346 -48.99857592 43.06520749 -51.375 40.5625 C-51.88804687 40.02109375 -52.40109375 39.4796875 -52.9296875 38.921875 C-64.53874675 27.92381886 -80.06213848 27.04262007 -95.17578125 27.3203125 C-110.78790407 27.89110866 -124.84569047 33.21789935 -136.1875 44.16796875 C-141.50699069 49.99091123 -145.6396859 56.16106185 -148.375 63.5625 C-156.41196673 62.96919676 -164.36594875 62.10230976 -172.34375 60.96875 C-173.42708618 60.81716431 -174.51042236 60.66557861 -175.62658691 60.50939941 C-177.89223374 60.19162484 -180.15765413 59.87223188 -182.42285156 59.55126953 C-185.89330088 59.05990889 -189.36454733 58.57450811 -192.8359375 58.08984375 C-195.04692412 57.77899502 -197.25786339 57.46780924 -199.46875 57.15625 C-201.02184875 56.93902283 -201.02184875 56.93902283 -202.60632324 56.71740723 C-204.049328 56.51214417 -204.049328 56.51214417 -205.52148438 56.30273438 C-206.3646521 56.18361694 -207.20781982 56.06449951 -208.07653809 55.94177246 C-210.21638055 55.58867402 -212.2808601 55.12253439 -214.375 54.5625 C-213.12311553 48.00966725 -211.2675629 42.37697455 -208.375 36.375 C-207.97909668 35.55128906 -207.58319336 34.72757812 -207.17529297 33.87890625 C-194.43086278 8.14025305 -172.39030854 -9.48439434 -145.5534668 -18.97265625 C-100.44960558 -34.19371551 -37.64814808 -32.93485597 0 0 Z M-45.80078125 133.4140625 C-50.98934679 135.50123711 -56.08768234 136.84331249 -61.5625 137.9375 C-62.55572266 138.14246094 -63.54894531 138.34742188 -64.57226562 138.55859375 C-71.37376582 139.90999236 -78.19291026 141.02006664 -85.05078125 142.0390625 C-85.89859665 142.16566254 -86.74641205 142.29226257 -87.61991882 142.42269897 C-91.84964531 143.05091543 -96.08088338 143.66109267 -100.31713867 144.24365234 C-117.23558521 146.64188849 -137.04277714 150.47317861 -149.015625 163.75 C-155.16080212 171.94356949 -157.31593038 181.45123227 -156.375 191.5625 C-154.7118229 201.58349144 -150.3033671 208.83594084 -142.3984375 215.1875 C-127.49207707 225.31691867 -108.55196627 226.44854048 -91.25 223.4375 C-79.5258026 221.12729922 -69.41820231 216.43709764 -60.375 208.5625 C-59.55128906 207.93730469 -58.72757813 207.31210937 -57.87890625 206.66796875 C-48.55406425 198.82695496 -42.5438897 186.41943596 -40.375 174.5625 C-40.12452676 171.16239906 -40.14057069 167.78277998 -40.1796875 164.375 C-40.18393234 162.96033447 -40.18393234 162.96033447 -40.18826294 161.51708984 C-40.19937558 158.53209244 -40.22446328 155.54740531 -40.25 152.5625 C-40.26004134 150.52734811 -40.26916516 148.49219148 -40.27734375 146.45703125 C-40.29928565 141.49206963 -40.33375327 136.52733725 -40.375 131.5625 C-42.27357508 131.5625 -44.08263086 132.68517056 -45.80078125 133.4140625 Z " fill="#983AFE" transform="translate(2262.375,306.4375)"/>
<path d="M0 0 C23.1 0 46.2 0 70 0 C70.0093457 5.58099609 70.01869141 11.16199219 70.02832031 16.91210938 C70.06213246 35.38024719 70.11750578 53.84827429 70.18390274 72.31632233 C70.2236238 83.51020023 70.25605143 94.70400855 70.27099609 105.89794922 C70.28404863 115.66052 70.31110482 125.4229372 70.35461307 135.18542147 C70.37714707 140.34921993 70.39291554 145.51282953 70.39188385 150.67668152 C70.39113245 155.54903141 70.40927404 160.4209651 70.44116783 165.29320717 C70.4496028 167.06995555 70.45146097 168.84675097 70.44580269 170.62351036 C70.39395188 189.42738124 73.27954832 206.61525095 86.67578125 220.7421875 C98.15841959 231.89675046 110.98619337 235.4355801 126.68798828 235.36352539 C142.10907348 235.0272447 156.81379901 228.81721523 168.0078125 218.15625 C182.2332785 202.75927503 185.45290998 185.00076759 185.43237305 164.83886719 C185.44140561 163.03415767 185.45173646 161.22945426 185.46325684 159.42475891 C185.49067756 154.55990566 185.50009094 149.6951693 185.50611091 144.83024883 C185.51553367 139.73332332 185.54174006 134.63648379 185.56611633 129.53961182 C185.60967807 119.90334392 185.63828834 110.26709281 185.66143972 100.63075662 C185.68854691 89.653612 185.73245491 78.67655433 185.77772844 67.69947195 C185.87042679 45.13301592 185.93995783 22.56656818 186 0 C209.1 0 232.2 0 256 0 C256 97.02 256 194.04 256 294 C233.89 294 211.78 294 189 294 C189 276.84 189 259.68 189 242 C188.01 242 187.02 242 186 242 C185.59587891 243.31291016 185.59587891 243.31291016 185.18359375 244.65234375 C178.53554159 263.45558038 162.46749654 278.68013946 145.1875 287.875 C119.48359745 299.79772232 88.71996304 301.56058788 61.85400391 292.25683594 C39.29268194 283.76965504 21.87941028 268.05812653 11.26171875 246.46484375 C2.0496538 225.82341782 -0.4750449 205.48067876 -0.34057617 183.11645508 C-0.33972738 181.10382602 -0.34020994 179.09119603 -0.34190369 177.0785675 C-0.34275525 171.67895444 -0.32526728 166.27954628 -0.30418181 160.87998033 C-0.28527326 155.21326663 -0.2836535 149.54654689 -0.28010559 143.87980652 C-0.27082641 133.17768925 -0.24626918 122.47566526 -0.21605712 111.77358884 C-0.18238375 99.57750469 -0.16599475 87.38141581 -0.15097082 75.18529665 C-0.1197154 50.12346768 -0.06475565 25.06176635 0 0 Z " fill="#AE3FFC" transform="translate(1680,283)"/>
<path d="M0 0 C21.40108011 18.34140225 31.92463375 45.3345231 34.31809998 72.95072937 C34.98527234 81.92154204 34.92113754 90.88055602 34.90258789 99.87036133 C34.90230529 101.80328876 34.90246517 103.7362163 34.9030304 105.66914368 C34.90331553 110.87896105 34.89746483 116.08875507 34.89045644 121.29856706 C34.88417551 126.75712352 34.88361537 132.2156806 34.88243103 137.67424011 C34.87933163 147.99402517 34.8711371 158.31379954 34.86108154 168.63357991 C34.84987707 180.38939992 34.84439906 192.14522046 34.83938611 203.90104449 C34.82895324 228.06815152 34.81062516 252.23524391 34.7890625 276.40234375 C11.6890625 276.40234375 -11.4109375 276.40234375 -35.2109375 276.40234375 C-35.23075684 270.99786865 -35.25057617 265.59339355 -35.27099609 260.02514648 C-35.33798354 242.14376213 -35.41552424 224.26243495 -35.49846458 206.38111782 C-35.54848143 195.54258559 -35.59492518 184.7040605 -35.6328125 173.86547852 C-35.66586324 164.41315742 -35.7057657 154.96089367 -35.75372756 145.50863606 C-35.77886311 140.50867905 -35.80068184 135.50875944 -35.81428146 130.50875664 C-35.82722027 125.7916442 -35.84939887 121.07466089 -35.87832069 116.35762024 C-35.88730499 114.63688628 -35.89306497 112.91613159 -35.89515114 111.19537544 C-35.92655161 89.20670637 -38.01366213 68.43754575 -53.76953125 51.6953125 C-64.71113441 41.41895881 -79.39384633 38.24474294 -94.01708984 38.32910156 C-108.26155379 38.80465678 -124.15127625 43.35244306 -134.63671875 53.53515625 C-148.92912458 70.4874391 -152.50433312 87.81038402 -152.52978516 109.52001953 C-152.53909562 111.34413593 -152.54926593 113.16824811 -152.56022644 114.99235535 C-152.58741449 119.91928308 -152.60264251 124.8461824 -152.61565447 129.77316523 C-152.63133421 134.9314819 -152.6581089 140.08974097 -152.6836853 145.24801636 C-152.73038757 155.00476057 -152.76717298 164.76151572 -152.80035818 174.51831424 C-152.83864012 185.63082508 -152.88803432 196.74327794 -152.93834233 207.85573983 C-153.04153496 230.70457024 -153.12936975 253.55342521 -153.2109375 276.40234375 C-176.3109375 276.40234375 -199.4109375 276.40234375 -223.2109375 276.40234375 C-223.2109375 179.38234375 -223.2109375 82.36234375 -223.2109375 -17.59765625 C-201.1009375 -17.59765625 -178.9909375 -17.59765625 -156.2109375 -17.59765625 C-156.2109375 -1.09765625 -156.2109375 15.40234375 -156.2109375 32.40234375 C-155.5509375 32.40234375 -154.8909375 32.40234375 -154.2109375 32.40234375 C-153.94152344 31.52835937 -153.67210937 30.654375 -153.39453125 29.75390625 C-149.51532627 18.76922679 -142.28959632 10.49249426 -134.2109375 2.40234375 C-133.11458984 1.28859375 -133.11458984 1.28859375 -131.99609375 0.15234375 C-98.10021902 -32.16551075 -34.72728354 -28.58583664 0 0 Z " fill="#D745F8" transform="translate(1334.2109375,300.59765625)"/>
<path d="M0 0 C4.40449143 1.37962993 8.50178402 3.08009243 12.671875 5.0546875 C13.61744011 5.50043373 13.61744011 5.50043373 14.58210754 5.95518494 C15.9344982 6.59308206 17.28618959 7.23246345 18.63723755 7.87319946 C22.25877439 9.59040982 25.8857356 11.29611036 29.51171875 13.00390625 C30.24136337 13.34796005 30.971008 13.69201385 31.72276306 14.04649353 C37.98837485 16.99965663 44.27056444 19.91583148 50.5625 22.8125 C52.09789429 23.51971191 52.09789429 23.51971191 53.66430664 24.24121094 C55.87213023 25.25787312 58.08006139 26.2743017 60.28808594 27.29052734 C66.92546433 30.34629658 73.55882721 33.41078064 80.19302368 36.47344971 C84.39551728 38.41348927 88.59814133 40.35324619 92.80078125 42.29296875 C94.06909035 42.87836426 94.06909035 42.87836426 95.36302185 43.47558594 C100.34834397 45.77649013 105.33396106 48.07675366 110.31985474 50.37641907 C114.33833957 52.2298893 118.35670185 54.0836251 122.375 55.9375 C123.16998901 56.30426849 123.96497803 56.67103699 124.78405762 57.04891968 C138.54803474 63.39971769 152.30249136 69.77095058 166.05291748 76.15103149 C174.32017732 79.98689206 182.58775749 83.82145475 190.87890625 87.60546875 C192.58832397 88.38579468 192.58832397 88.38579468 194.33227539 89.18188477 C196.37603444 90.11295681 198.42072727 91.04198314 200.46655273 91.96850586 C201.76701538 92.5603064 201.76701538 92.5603064 203.09375 93.1640625 C203.83302734 93.49873535 204.57230469 93.8334082 205.33398438 94.17822266 C207 95 207 95 208 96 C208.97019452 109.71552902 207.24540386 123.80421181 206.36352539 137.48510742 C206.18694415 140.26726419 206.01169411 143.04950446 205.83638 145.83174133 C205.41055674 152.57686694 204.98006843 159.3216869 204.54797775 166.0664136 C204.04420923 173.93296211 203.54523151 181.79981237 203.04645317 189.66667859 C202.15604976 203.70794643 201.26149211 217.74894645 200.36450195 231.78979492 C199.49544619 245.39345616 198.6290934 258.99728581 197.76586914 272.60131836 C197.68606836 273.85893213 197.68606836 273.85893213 197.60465545 275.14195224 C197.49747194 276.83112982 197.39028853 278.52030742 197.28310522 280.20948501 C197.23022334 281.04287841 197.17734146 281.87627181 197.12285709 282.73491955 C197.07010368 283.56630135 197.01735027 284.39768315 196.96299827 285.25425835 C196.13823599 298.25074434 195.31117501 311.24708418 194.48381012 324.24340471 C194.18470662 328.94207333 193.88590405 333.64076096 193.5873142 338.33946224 C193.11370357 345.79202451 192.63908214 353.24452095 192.16244514 360.69689032 C191.94488652 364.09872696 191.72777594 367.50059044 191.51196289 370.9025383 C191.27723768 374.59833943 191.04065634 378.29401729 190.80360413 381.9896698 C190.70291778 383.58482738 190.70291778 383.58482738 190.60019737 385.21221036 C190.17384448 391.81951683 189.63282049 398.40926723 189 405 C185.93433386 402.13023311 184.36147445 398.95783345 182.62890625 395.18359375 C182.310961 394.50458008 181.99301575 393.82556641 181.66543579 393.12597656 C180.62479918 390.89937201 179.59358991 388.66853942 178.5625 386.4375 C177.83491837 384.8754868 177.10680419 383.31372154 176.37817383 381.75219727 C174.2435372 377.17208738 172.12085665 372.58650285 170 368 C169.19997559 366.27330078 169.19997559 366.27330078 168.38378906 364.51171875 C166.02098841 359.41076419 163.66607764 354.30623323 161.31640625 349.19921875 C157.10175588 340.04216108 152.86332997 330.89611623 148.625 321.75 C148.21492706 320.86501831 147.80485413 319.98003662 147.38235474 319.0682373 C141.57904236 306.54575878 135.75687247 294.03224971 129.9152832 281.52758789 C122.39494576 265.42821942 114.92077281 249.30745258 107.453125 233.18359375 C105.822986 229.66403038 104.19277806 226.14449896 102.5625 222.625 C101.9503212 221.30338867 101.9503212 221.30338867 101.32577515 219.95507812 C96.10797063 208.69182 90.87890508 197.43396502 85.625 186.1875 C85.34192993 185.58154999 85.05885986 184.97559998 84.76721191 184.35128784 C84.34538635 183.44831467 84.34538635 183.44831467 83.91503906 182.52709961 C76.39483767 166.42786824 68.92069643 150.30728767 61.453125 134.18359375 C59.822986 130.66403038 58.19277806 127.14449896 56.5625 123.625 C55.9503212 122.30338867 55.9503212 122.30338867 55.32577515 120.95507812 C50.10797063 109.69182 44.87890508 98.43396502 39.625 87.1875 C39.34192993 86.58154999 39.05885986 85.97559998 38.76721191 85.35128784 C38.48599487 84.74930573 38.20477783 84.14732361 37.91503906 83.52709961 C32.86704336 72.72036098 27.83957477 61.90422372 22.82391357 51.08244324 C20.65923397 46.41473529 18.48584257 41.75112349 16.31059265 37.08833313 C14.5570857 33.32812559 12.80648546 29.56656847 11.0562439 25.80484009 C10.18935015 23.94339726 9.32121744 22.08253091 8.45181274 20.22225952 C7.23024939 17.60800642 6.01310148 14.99173933 4.796875 12.375 C4.24313454 11.19409538 4.24313454 11.19409538 3.6782074 9.98933411 C3.33935013 9.25808823 3.00049286 8.52684235 2.65136719 7.7734375 C2.3552655 7.13841309 2.05916382 6.50338867 1.75408936 5.84912109 C0.96840734 3.92253086 0.45606168 2.0276891 0 0 Z " fill="#F93FE2" transform="translate(415,107)"/>
<path d="M0 0 C1.25244368 3.75733105 0.59262183 4.49473165 -1.0703125 7.99609375 C-1.54734619 9.01388916 -2.02437988 10.03168457 -2.51586914 11.08032227 C-3.31238892 12.74212524 -3.31238892 12.74212524 -4.125 14.4375 C-4.96312377 16.21828216 -5.80123502 17.99907033 -6.6386261 19.78019714 C-7.5139385 21.63848598 -8.39350817 23.49471106 -9.27392578 25.35058594 C-11.90560673 30.90470893 -14.48025944 36.48527191 -17.0625 42.0625 C-18.14817444 44.39986179 -19.23412453 46.73709556 -20.3203125 49.07421875 C-23.06928882 54.99155286 -25.81280591 60.91140674 -28.5546875 66.83203125 C-43.13356522 98.31154562 -43.13356522 98.31154562 -50.375 113.8125 C-50.65807007 114.41845001 -50.94114014 115.02440002 -51.23278809 115.64871216 C-51.51400513 116.25069427 -51.79522217 116.85267639 -52.08496094 117.47290039 C-59.60516233 133.57213176 -67.07930357 149.69271233 -74.546875 165.81640625 C-76.177014 169.33596962 -77.80722194 172.85550104 -79.4375 176.375 C-79.8456192 177.25607422 -80.2537384 178.13714844 -80.67422485 179.04492188 C-85.89202937 190.30818 -91.12109492 201.56603498 -96.375 212.8125 C-96.65807007 213.41845001 -96.94114014 214.02440002 -97.23278809 214.64871216 C-97.51400513 215.25069427 -97.79522217 215.85267639 -98.08496094 216.47290039 C-105.60516233 232.57213176 -113.07930357 248.69271233 -120.546875 264.81640625 C-122.177014 268.33596962 -123.80722194 271.85550104 -125.4375 275.375 C-125.8456192 276.25607422 -126.2537384 277.13714844 -126.67422485 278.04492188 C-131.89202937 289.30818 -137.12109492 300.56603498 -142.375 311.8125 C-142.7996051 312.72142502 -142.7996051 312.72142502 -143.23278809 313.64871216 C-143.51400513 314.25069427 -143.79522217 314.85267639 -144.08496094 315.47290039 C-147.79493765 323.41521075 -151.49625782 331.36146486 -155.1875 339.3125 C-155.69909668 340.41424561 -156.21069336 341.51599121 -156.73779297 342.65112305 C-159.69238983 349.0173741 -162.64159153 355.38609195 -165.58625793 361.75694275 C-167.29809575 365.4601668 -169.011053 369.16287264 -170.72402954 372.86557007 C-171.56540854 374.685147 -172.4062215 376.50498579 -173.24642944 378.32510376 C-181.83071729 396.92070531 -181.83071729 396.92070531 -186 405 C-186.33 405 -186.66 405 -187 405 C-188.4882642 387.99365801 -189.70743352 370.98030892 -190.78759766 353.94360352 C-190.95519437 351.32727398 -191.12298062 348.71095659 -191.29093933 346.09465027 C-191.69513786 339.79174886 -192.09677738 333.48868709 -192.49730088 327.18555117 C-192.82318564 322.05703484 -193.14978018 316.92856419 -193.4768486 311.80012321 C-194.40801618 297.19771963 -195.33708565 282.59518459 -196.26361366 267.99248589 C-196.31326177 267.21000705 -196.36290989 266.42752821 -196.4140625 265.62133789 C-196.46377195 264.83788445 -196.5134814 264.054431 -196.56469719 263.24723654 C-197.37189621 250.52738491 -198.18428697 237.80787071 -198.99896295 225.08849598 C-199.8393077 211.96733792 -200.6755975 198.84592664 -201.50778043 185.72424835 C-201.97355021 178.38144938 -202.44095976 171.03876364 -202.91279984 163.69635201 C-203.35609555 156.79766978 -203.79376819 149.89864985 -204.22776222 142.9993763 C-204.38714197 140.47949988 -204.54832974 137.95973701 -204.7115345 135.44010544 C-205.56310138 122.27603358 -206.25331874 109.1939652 -206 96 C-182.91598372 84.20974221 -159.2544881 73.54475414 -135.71191406 62.70947266 C-129.07453567 59.65370342 -122.44117279 56.58921936 -115.80697632 53.52655029 C-111.60448272 51.58651073 -107.40185867 49.64675381 -103.19921875 47.70703125 C-101.93090965 47.12163574 -101.93090965 47.12163574 -100.63697815 46.52441406 C-95.65171183 44.22353562 -90.6661501 41.92329881 -85.68031311 39.62365723 C-66.02363138 30.55729536 -46.37491454 21.47398521 -26.73681641 12.36743164 C-17.82841291 8.23652539 -8.9178833 4.11041519 0 0 Z " fill="#FA2B8F" transform="translate(286,107)"/>
<path d="M0 0 C74.91 0 149.82 0 227 0 C246.93882979 48.08776596 246.93882979 48.08776596 256 70 C253.52079295 72.77339447 250.79477299 74.40788797 247.56640625 76.23046875 C246.45692627 76.86033691 245.34744629 77.49020508 244.2043457 78.13916016 C242.99043255 78.82200307 241.77648298 79.50478124 240.5625 80.1875 C239.30204189 80.9010257 238.04187397 81.61506423 236.78198242 82.32958984 C234.16107081 83.81555285 231.53891638 85.29928953 228.91601562 86.78173828 C225.20260487 88.88265049 221.49807125 90.99875164 217.796875 93.12109375 C217.21717453 93.45343521 216.63747406 93.78577667 216.04020691 94.12818909 C214.87757728 94.79474771 213.71495416 95.46131768 212.55233765 96.12789917 C203.14947083 101.51668147 193.71670086 106.84901256 184.25 112.125 C175.117309 117.2155883 166.06881295 122.43505013 157.05371094 127.73071289 C148.55994423 132.70689442 139.98308703 137.52660849 131.37109375 142.29492188 C130.39269531 142.83826172 129.41429687 143.38160156 128.40625 143.94140625 C127.48070312 144.45461426 126.55515625 144.96782227 125.6015625 145.49658203 C122.54316746 147.26399913 119.6227864 149.19533434 116.73632812 151.23022461 C114.392007 152.26954471 113.37787045 151.88844755 111 151 C109.52528192 150.30031749 108.07327487 149.55174821 106.640625 148.76953125 C105.7849292 148.30369629 104.9292334 147.83786133 104.04760742 147.35791016 C102.66279175 146.59293213 102.66279175 146.59293213 101.25 145.8125 C100.27844971 145.27931152 99.30689941 144.74612305 98.3059082 144.19677734 C90.18553486 139.71339067 82.17237422 135.05601873 74.17675781 130.35473633 C67.0016074 126.14310973 59.77054087 122.04446813 52.5 118 C44.31803516 113.4474139 36.19682799 108.80757459 28.125 104.0625 C19.50620181 98.99723495 10.81295132 94.08265369 2.0625 89.25 C-5.70225103 84.95651042 -13.45819165 80.65418405 -21.125 76.1875 C-21.82359131 75.78499023 -22.52218262 75.38248047 -23.24194336 74.96777344 C-27.88040066 72.23919869 -27.88040066 72.23919869 -29 70 C-28.09749125 67.39584226 -27.12396276 64.8990719 -26.0546875 62.36328125 C-25.72896759 61.57398727 -25.40324768 60.7846933 -25.06765747 59.97148132 C-24.01067904 57.41541676 -22.94297436 54.86398695 -21.875 52.3125 C-21.20893974 50.70536627 -20.54356897 49.09794659 -19.87890625 47.49023438 C-13.3054394 31.63839953 -6.63638337 15.82522188 0 0 Z " fill="#F41856" transform="translate(238,531)"/>
<path d="M0 0 C23.1 0 46.2 0 70 0 C70 129.36 70 258.72 70 392 C46.9 392 23.8 392 0 392 C0 262.64 0 133.28 0 0 Z " fill="#A43FFE" transform="translate(1958,185)"/>
<path d="M0 0 C0 21.45 0 42.9 0 65 C-7.26 64.01 -14.52 63.02 -22 62 C-43.38318173 61.15592704 -61.89773455 64.72622926 -78.41015625 79.09765625 C-89.45516868 89.55261793 -95.81543117 103.43530566 -96.57909548 118.65543556 C-96.68534118 122.7044234 -96.68139243 126.74880853 -96.65942383 130.79882812 C-96.66789896 132.62383612 -96.678553 134.44883507 -96.69119263 136.27381897 C-96.71908579 141.17573643 -96.71691268 146.07721255 -96.70889878 150.9791851 C-96.70575225 156.12148216 -96.73087048 161.26364383 -96.75285339 166.40588379 C-96.79015647 176.11997589 -96.80243322 185.83392805 -96.8054778 195.54808474 C-96.8101836 206.61723589 -96.84315554 217.68624816 -96.87837565 228.75533772 C-96.95013028 251.50357698 -96.98306822 274.25164931 -97 297 C-120.43 297 -143.86 297 -168 297 C-168 199.98 -168 102.96 -168 3 C-145.56 3 -123.12 3 -100 3 C-100 19.17 -100 35.34 -100 52 C-99.01 52 -98.02 52 -97 52 C-96.835 50.80375 -96.67 49.6075 -96.5 48.375 C-93.91864491 36.91233929 -86.17356986 27.08872312 -78 19 C-77.33742188 18.30390625 -76.67484375 17.6078125 -75.9921875 16.890625 C-56.12131221 -2.60247699 -25.98328158 -3.71189737 0 0 Z " fill="#9139FF" transform="translate(2480,280)"/>
<path d="M0 0 C2.10375001 2.6412481 3.61406857 5.09350802 4.875 8.22216797 C5.21461761 9.05623672 5.55423523 9.89030548 5.90414429 10.74964905 C6.26577667 11.65468674 6.62740906 12.55972443 7 13.4921875 C7.38781647 14.44858627 7.77563293 15.40498505 8.17520142 16.3903656 C9.01480121 18.462631 9.85174576 20.53597373 10.68634033 22.61026001 C12.47331391 27.05129161 14.2730134 31.48712772 16.07217407 35.92323303 C17.00360654 38.21996616 17.93440562 40.51695625 18.86459351 42.81419373 C23.39739891 54.00274465 28.00468597 65.15986835 32.625 76.3125 C39.24834975 92.31212571 45.8279948 108.32899622 52.36669922 124.36340332 C56.35572492 134.1444415 60.368639 143.91399604 64.4609375 153.65234375 C64.81583252 154.49804932 65.17072754 155.34375488 65.53637695 156.21508789 C67.21146041 160.20521363 68.89215441 164.19280081 70.58300781 168.17626953 C71.17271319 169.57706967 71.76224222 170.97794406 72.3515625 172.37890625 C72.86541504 173.5913501 73.37926758 174.80379395 73.90869141 176.05297852 C75 179 75 179 75 182 C25.83 182 -23.34 182 -74 182 C-73.14200022 177.71000108 -71.93786966 174.03741468 -70.2890625 170.03515625 C-69.86976723 169.00268517 -69.86976723 169.00268517 -69.44200134 167.94935608 C-68.50744518 165.65189822 -67.56632143 163.35719345 -66.625 161.0625 C-65.95537877 159.42117092 -65.28603313 157.77972939 -64.61694336 156.13818359 C-58.09770969 140.16458811 -51.49995169 124.22305184 -44.90356445 108.28120422 C-40.24803877 97.02935423 -35.61605767 85.76809182 -31 74.5 C-25.35742174 60.73106528 -19.69934237 46.96856928 -14.02392578 33.21313477 C-13.18398027 31.17701541 -12.34445239 29.1407237 -11.50537109 27.10424805 C-10.33293442 24.25909414 -9.15887223 21.41461631 -7.984375 18.5703125 C-7.46819611 17.31657333 -7.46819611 17.31657333 -6.94158936 16.0375061 C-4.71474084 10.65151473 -2.39273262 5.31434639 0 0 Z " fill="#F92B9A" transform="translate(351,260)"/>
</svg>
